<svg xmlns="http://www.w3.org/2000/svg" width="96" height="96" viewBox="0 0 96 96">
            <defs>
              <linearGradient id="pl20b" x1="0" y1="0" x2="0.35" y2="1">
                <stop offset="0" stop-color="#0E3A63"></stop><stop offset="1" stop-color="#051526"></stop>
              </linearGradient>
              <linearGradient id="ac20b" x1="0" y1="0" x2="0" y2="1">
                <stop offset="0" stop-color="#6FD2FF"></stop><stop offset="1" stop-color="#2FB4F5"></stop>
              </linearGradient>
              <clipPath id="cp20b"><rect x="2" y="2" width="92" height="92" rx="21"></rect></clipPath>
              <clipPath id="cpV1_20b"><rect x="19" y="16" width="10" height="64" rx="5" transform="rotate(45 48 48)"></rect></clipPath>
              <clipPath id="cpA_20b"><rect x="43" y="16" width="10" height="64" rx="5" transform="rotate(45 48 48)"></rect></clipPath>
              <clipPath id="cpV3_20b"><rect x="67" y="16" width="10" height="64" rx="5" transform="rotate(45 48 48)"></rect></clipPath>
              <clipPath id="all20b">
                <rect x="19" y="16" width="10" height="64" rx="5" transform="rotate(45 48 48)"></rect>
                <rect x="67" y="16" width="10" height="64" rx="5" transform="rotate(45 48 48)"></rect>
                <rect x="14" y="29" width="68" height="10" rx="5" transform="rotate(45 48 48)"></rect>
                <rect x="14" y="57" width="68" height="10" rx="5" transform="rotate(45 48 48)"></rect>
                <rect x="43" y="16" width="10" height="64" rx="5" transform="rotate(45 48 48)"></rect>
              </clipPath>
              <filter id="bl20b" x="-60%" y="-60%" width="220%" height="220%">
                <feGaussianBlur stdDeviation="14"></feGaussianBlur>
              </filter>
              <filter id="sb20b" x="-50%" y="-50%" width="200%" height="200%">
                <feGaussianBlur stdDeviation="1.3"></feGaussianBlur>
              </filter>
              <filter id="ds20b" x="-30%" y="-30%" width="160%" height="160%">
                <feDropShadow dx="0.8" dy="1.2" stdDeviation="1.2" flood-color="#000000" flood-opacity="0.5"></feDropShadow>
              </filter>
              <filter id="ga20b" x="-60%" y="-60%" width="220%" height="220%">
                <feDropShadow dx="0.8" dy="1.2" stdDeviation="1.2" flood-color="#000000" flood-opacity="0.5"></feDropShadow>
                <feDropShadow dx="0" dy="0" stdDeviation="3" flood-color="#4CC2FF" flood-opacity="0.35"></feDropShadow>
              </filter>
              <filter id="nz20b">
                <feTurbulence type="fractalNoise" baseFrequency="0.9" numOctaves="2" stitchTiles="stitch"></feTurbulence>
                <feColorMatrix type="matrix" values="0 0 0 0 1  0 0 0 0 1  0 0 0 0 1  0.35 0.35 0.35 0 0"></feColorMatrix>
              </filter>
            </defs>
            <rect x="2" y="2" width="92" height="92" rx="21" fill="url(#pl20b)"></rect>
            <g clip-path="url(#cp20b)">
              <ellipse cx="24" cy="12" rx="55" ry="38" fill="#1E5C94" opacity="0.5" filter="url(#bl20b)"></ellipse>
              <ellipse cx="84" cy="90" rx="55" ry="42" fill="#020B14" opacity="0.55" filter="url(#bl20b)"></ellipse>
            </g>
            <g transform="rotate(45 48 48)" filter="url(#ds20b)">
              <rect x="14" y="29" width="68" height="10" rx="5" fill="#9DBAD6"></rect>
              <rect x="14" y="57" width="68" height="10" rx="5" fill="#9DBAD6"></rect>
            </g>
            <g transform="rotate(45 48 48)" filter="url(#ds20b)">
              <rect x="19" y="16" width="10" height="64" rx="5" fill="#45678D"></rect>
              <rect x="67" y="16" width="10" height="64" rx="5" fill="#45678D"></rect>
            </g>
            <g transform="rotate(45 48 48)" filter="url(#ga20b)">
              <rect x="43" y="16" width="10" height="64" rx="5" fill="url(#ac20b)"></rect>
            </g>
            <g clip-path="url(#cpA_20b)">
              <rect x="34.8" y="30.2" width="28" height="10" fill="#000000" opacity="0.45" filter="url(#sb20b)" transform="rotate(45 48 48)"></rect>
            </g>
            <g clip-path="url(#cpV1_20b)">
              <rect x="14.8" y="58.2" width="20" height="10" fill="#000000" opacity="0.45" filter="url(#sb20b)" transform="rotate(45 48 48)"></rect>
            </g>
            <g clip-path="url(#cpV3_20b)">
              <rect x="62.8" y="58.2" width="20" height="10" fill="#000000" opacity="0.45" filter="url(#sb20b)" transform="rotate(45 48 48)"></rect>
            </g>
            <g transform="rotate(45 48 48)">
              <rect x="34" y="29" width="28" height="10" fill="#9DBAD6"></rect>
              <rect x="14" y="57" width="20" height="10" rx="5" fill="#9DBAD6"></rect>
              <rect x="62" y="57" width="20" height="10" rx="5" fill="#9DBAD6"></rect>
            </g>
            <rect x="2" y="2" width="92" height="92" fill="#FFFFFF" clip-path="url(#all20b)" opacity="0.04"></rect>
            <rect x="2" y="2" width="92" height="92" filter="url(#nz20b)" clip-path="url(#all20b)" opacity="0.02"></rect>
          </svg>