<svg xmlns="http://www.w3.org/2000/svg" width="96" height="96" viewBox="0 0 96 96">
  <defs>
    <mask id="w1" maskUnits="userSpaceOnUse" x="0" y="0" width="96" height="96">
      <rect x="14" y="28" width="68" height="12" rx="6" fill="#FFFFFF"></rect>
      <rect x="18" y="16" width="12" height="64" fill="#000000"></rect>
      <rect x="66" y="16" width="12" height="64" fill="#000000"></rect>
    </mask>
    <mask id="w2" maskUnits="userSpaceOnUse" x="0" y="0" width="96" height="96">
      <rect x="14" y="56" width="68" height="12" rx="6" fill="#FFFFFF"></rect>
      <rect x="42" y="16" width="12" height="64" fill="#000000"></rect>
    </mask>
    <mask id="v13" maskUnits="userSpaceOnUse" x="0" y="0" width="96" height="96">
      <rect x="18" y="16" width="12" height="64" rx="6" fill="#FFFFFF"></rect>
      <rect x="66" y="16" width="12" height="64" rx="6" fill="#FFFFFF"></rect>
      <rect x="14" y="56" width="68" height="12" fill="#000000"></rect>
    </mask>
    <mask id="va" maskUnits="userSpaceOnUse" x="0" y="0" width="96" height="96">
      <rect x="42" y="16" width="12" height="64" rx="6" fill="#FFFFFF"></rect>
      <rect x="14" y="28" width="68" height="12" fill="#000000"></rect>
    </mask>
  </defs>
  <g transform="rotate(45 48 48)" fill="#000000">
    <rect x="14" y="28" width="68" height="12" rx="6" opacity="0.55" mask="url(#w1)"></rect>
    <rect x="14" y="56" width="68" height="12" rx="6" opacity="0.55" mask="url(#w2)"></rect>
    <rect x="18" y="16" width="12" height="64" rx="6" opacity="0.75" mask="url(#v13)"></rect>
    <rect x="66" y="16" width="12" height="64" rx="6" opacity="0.75" mask="url(#v13)"></rect>
    <rect x="42" y="16" width="12" height="64" rx="6" mask="url(#va)"></rect>
  </g>
</svg>